<svg width="163" height="126" viewBox="0 0 163 126" fill="none" xmlns="http://www.w3.org/2000/svg">
<rect x="24.7071" y="58.0639" width="76.1148" height="74.6031" transform="rotate(-44.5077 24.7071 58.0639)" stroke="#F2AE30"/>
<circle cx="78" cy="57.0579" r="28" fill="#F2AE30"/>
<g filter="url(#filter0_f_128_348)">
<path d="M78.5868 106.162C79.4188 106.802 80.3148 107.122 81.2748 107.122C82.1708 107.122 82.9708 106.866 83.6748 106.354C84.4428 105.778 84.9868 105.042 85.3068 104.146C85.3068 103.122 85.4348 102.482 85.6908 102.226C86.1388 101.778 86.5228 101.554 86.8428 101.554C87.3548 101.554 87.6108 102.002 87.6108 102.898C87.6108 103.538 87.5468 104.018 87.4188 104.338C87.4188 104.466 87.3548 104.594 87.2268 104.722C86.5868 106.194 85.7228 107.346 84.6348 108.178C83.6108 109.01 82.4908 109.426 81.2748 109.426C79.1628 109.426 77.0828 108.178 75.0348 105.682C72.7948 102.994 71.0028 99.2499 69.6588 94.4499C68.6988 90.8019 68.2188 86.6099 68.2188 81.8739C68.3468 75.2179 69.2428 69.5859 70.9068 64.9779C72.3788 61.1379 74.2028 57.9699 76.3788 55.4739C77.0828 54.5139 78.0748 53.5219 79.3548 52.4979C79.8028 52.0499 80.4748 51.6019 81.3708 51.1539C82.5228 50.5779 83.6108 50.2899 84.6348 50.2899C87.0028 50.2899 88.8588 51.5059 90.2028 53.9379C91.4188 56.0499 92.0268 58.5139 92.0268 61.3299C92.0268 64.4019 91.4188 67.0579 90.2028 69.2979C89.7548 70.1939 89.1788 71.0899 88.4748 71.9859L87.4188 72.8499C86.7788 73.1699 86.2348 73.3299 85.7868 73.3299C85.2108 73.3299 84.7308 73.1699 84.3468 72.8499C83.9628 72.4659 83.7708 72.0179 83.7708 71.5059C83.7708 71.1219 83.9308 70.7699 84.2508 70.4499C84.5708 70.0659 84.9868 69.7779 85.4988 69.5859C86.6508 69.4579 87.3868 69.1379 87.7068 68.6259C88.9228 66.2579 89.5308 63.9219 89.5308 61.6179C89.5308 59.9539 89.2748 58.3859 88.7628 56.9139C88.5068 55.9539 88.0268 55.0899 87.3228 54.3219C86.6188 53.4259 85.7228 52.9779 84.6348 52.9779C82.9708 52.9779 81.3708 53.8099 79.8348 55.4739C77.5948 57.5859 75.6428 60.4339 73.9788 64.0179C71.9948 68.6899 70.9068 73.8739 70.7148 79.5699C70.6508 80.3379 70.6188 81.4579 70.6188 82.9299C70.6188 86.5779 70.9708 89.8419 71.6748 92.7219C72.5708 96.1779 73.6908 99.1539 75.0348 101.65C76.1228 103.634 77.3068 105.138 78.5868 106.162ZM103.429 93.5859C103.173 93.5859 102.949 93.4899 102.757 93.2979C102.565 93.0419 102.405 92.7539 102.277 92.4339C102.149 91.7939 102.021 91.0579 101.893 90.2259C101.829 89.3299 101.765 88.6579 101.701 88.2099C101.573 87.3139 101.477 86.5459 101.413 85.9059C101.413 85.2019 101.413 84.6259 101.413 84.1779L101.125 83.1219H100.933C100.869 83.1859 100.645 83.5059 100.261 84.0819C98.789 86.6419 97.445 88.4659 96.229 89.5539C95.397 90.2579 94.533 90.8019 93.637 91.1859C93.189 91.3779 92.741 91.4739 92.293 91.4739C91.525 91.4739 90.821 91.2179 90.181 90.7059C89.605 90.1299 89.285 89.4259 89.221 88.5939V87.7299C89.221 87.1539 89.285 86.4179 89.413 85.5219C90.053 82.9619 91.461 80.8499 93.637 79.1859C94.917 78.0979 96.325 77.5539 97.861 77.5539C98.565 77.5539 99.397 77.7139 100.357 78.0339C100.485 77.7139 100.581 77.3619 100.645 76.9779C100.773 76.5939 100.933 76.2099 101.125 75.8259L101.413 74.9619C101.605 74.3219 102.053 74.0659 102.757 74.1939C103.333 74.1939 103.685 74.5459 103.813 75.2499C103.877 75.5059 103.909 75.8899 103.909 76.4019C103.845 79.6659 104.069 84.4339 104.581 90.7059C104.581 90.9619 104.645 91.3459 104.773 91.8579V92.1459C104.773 92.8499 104.453 93.2979 103.813 93.4899L103.429 93.5859ZM92.005 88.8819C92.261 89.0099 92.453 89.0739 92.581 89.0739C92.837 89.0739 93.093 88.9779 93.349 88.7859C93.669 88.5299 93.893 88.3699 94.021 88.3059C96.005 86.5779 97.797 83.9859 99.397 80.5299C98.885 80.2099 98.373 80.0499 97.861 80.0499C97.157 80.0499 96.581 80.2419 96.133 80.6259C93.637 82.0979 92.165 84.1779 91.717 86.8659C91.589 87.2499 91.525 87.5699 91.525 87.8259C91.525 88.2099 91.685 88.5619 92.005 88.8819ZM109.143 74.7699C108.631 74.7699 108.215 74.6419 107.895 74.3859C107.575 74.0659 107.383 73.7139 107.319 73.3299V73.1379C107.319 72.5619 107.671 72.1139 108.375 71.7939C108.439 71.7299 108.983 71.5699 110.007 71.3139C110.135 71.3779 110.327 71.4739 110.583 71.6019C110.839 71.6659 111.095 71.7939 111.351 71.9859C111.543 72.1779 111.639 72.3699 111.639 72.5619C111.639 72.7539 111.511 73.0419 111.255 73.4259L110.679 74.0019C110.295 74.5139 109.783 74.7699 109.143 74.7699ZM109.719 92.9139C109.335 92.9139 109.047 92.7859 108.855 92.5299C108.599 92.2739 108.407 91.9219 108.279 91.4739C108.151 90.0659 108.087 88.9779 108.087 88.2099C108.087 86.8659 108.151 84.7859 108.279 81.9699C107.447 81.5219 107.031 80.9459 107.031 80.2419C107.031 80.0499 107.095 79.7619 107.223 79.3779C107.415 78.7379 107.767 78.1299 108.279 77.5539C108.535 77.1699 108.951 76.9779 109.527 76.9779C109.847 76.9779 110.135 77.0739 110.391 77.2659C110.647 77.4579 110.807 77.6819 110.871 77.9379C111.063 78.3219 111.159 78.9299 111.159 79.7619L110.775 86.5779L110.871 91.5699L110.967 91.9539C110.903 92.4019 110.615 92.7219 110.103 92.9139H109.719ZM115.706 116.146C115.258 116.146 114.906 115.922 114.65 115.474C114.394 114.77 114.234 114.13 114.17 113.554C114.17 112.53 114.106 111.186 113.978 109.522C113.85 106.962 113.786 105.074 113.786 103.858C113.786 102.194 113.882 100.498 114.074 98.7699V97.8099C114.074 90.4499 114.106 84.9139 114.17 81.2019C114.17 80.4979 114.234 79.6979 114.362 78.8019C114.49 77.9059 114.586 77.2659 114.65 76.8819C114.778 76.3699 114.906 76.0179 115.034 75.8259C115.29 75.2499 115.77 75.0259 116.474 75.1539C117.434 75.3459 117.914 75.6979 117.914 76.2099C117.914 76.4659 117.658 77.2019 117.146 78.4179C116.698 79.6339 116.506 80.9779 116.57 82.4499C116.506 83.7299 116.474 85.7459 116.474 88.4979L117.146 87.1539C118.874 83.5699 120.09 81.1699 120.794 79.9539C121.114 79.3139 121.562 78.6419 122.138 77.9379C122.778 77.2339 123.226 76.7539 123.482 76.4979C123.738 76.2419 124.25 75.8579 125.018 75.3459C125.466 75.0899 125.946 74.9619 126.458 74.9619C127.354 74.9619 128.058 75.4099 128.57 76.3059C128.826 76.9459 128.922 77.4899 128.858 77.9379C128.73 79.5379 128.506 80.7219 128.186 81.4899C126.714 85.1379 124.378 88.5939 121.178 91.8579C119.962 93.0739 118.714 93.7139 117.434 93.7779C116.858 95.6339 116.57 97.1699 116.57 98.3859C116.826 104.53 116.986 109.106 117.05 112.114C117.114 112.626 117.146 113.394 117.146 114.418C117.146 114.61 117.082 114.962 116.954 115.474C116.826 115.922 116.474 116.146 115.898 116.146H115.706ZM118.394 91.3779L119.162 90.7059C122.234 87.4419 124.442 84.1459 125.786 80.8179C126.042 80.1779 126.234 79.1859 126.362 77.8419C126.426 77.7779 126.426 77.6819 126.362 77.5539C126.298 77.3619 126.234 77.2339 126.17 77.1699C124.762 78.1299 123.13 80.2739 121.274 83.6019C119.418 86.9299 118.394 89.5219 118.202 91.3779H118.394ZM145.523 93.5859C145.267 93.5859 145.043 93.4899 144.851 93.2979C144.659 93.0419 144.499 92.7539 144.371 92.4339C144.243 91.7939 144.115 91.0579 143.987 90.2259C143.923 89.3299 143.859 88.6579 143.795 88.2099C143.667 87.3139 143.571 86.5459 143.507 85.9059C143.507 85.2019 143.507 84.6259 143.507 84.1779L143.219 83.1219H143.027C142.963 83.1859 142.739 83.5059 142.355 84.0819C140.883 86.6419 139.539 88.4659 138.323 89.5539C137.491 90.2579 136.627 90.8019 135.731 91.1859C135.283 91.3779 134.835 91.4739 134.387 91.4739C133.619 91.4739 132.915 91.2179 132.275 90.7059C131.699 90.1299 131.379 89.4259 131.315 88.5939V87.7299C131.315 87.1539 131.379 86.4179 131.507 85.5219C132.147 82.9619 133.555 80.8499 135.731 79.1859C137.011 78.0979 138.419 77.5539 139.955 77.5539C140.659 77.5539 141.491 77.7139 142.451 78.0339C142.579 77.7139 142.675 77.3619 142.739 76.9779C142.867 76.5939 143.027 76.2099 143.219 75.8259L143.507 74.9619C143.699 74.3219 144.147 74.0659 144.851 74.1939C145.427 74.1939 145.779 74.5459 145.907 75.2499C145.971 75.5059 146.003 75.8899 146.003 76.4019C145.939 79.6659 146.163 84.4339 146.675 90.7059C146.675 90.9619 146.739 91.3459 146.867 91.8579V92.1459C146.867 92.8499 146.547 93.2979 145.907 93.4899L145.523 93.5859ZM134.099 88.8819C134.355 89.0099 134.547 89.0739 134.675 89.0739C134.931 89.0739 135.187 88.9779 135.443 88.7859C135.763 88.5299 135.987 88.3699 136.115 88.3059C138.099 86.5779 139.891 83.9859 141.491 80.5299C140.979 80.2099 140.467 80.0499 139.955 80.0499C139.251 80.0499 138.675 80.2419 138.227 80.6259C135.731 82.0979 134.259 84.1779 133.811 86.8659C133.683 87.2499 133.619 87.5699 133.619 87.8259C133.619 88.2099 133.779 88.5619 134.099 88.8819Z" fill="#191919" fill-opacity="0.9"/>
</g>
<path d="M78.5868 106.162C79.4188 106.802 80.3148 107.122 81.2748 107.122C82.1708 107.122 82.9708 106.866 83.6748 106.354C84.4428 105.778 84.9868 105.042 85.3068 104.146C85.3068 103.122 85.4348 102.482 85.6908 102.226C86.1388 101.778 86.5228 101.554 86.8428 101.554C87.3548 101.554 87.6108 102.002 87.6108 102.898C87.6108 103.538 87.5468 104.018 87.4188 104.338C87.4188 104.466 87.3548 104.594 87.2268 104.722C86.5868 106.194 85.7228 107.346 84.6348 108.178C83.6108 109.01 82.4908 109.426 81.2748 109.426C79.1628 109.426 77.0828 108.178 75.0348 105.682C72.7948 102.994 71.0028 99.2499 69.6588 94.4499C68.6988 90.8019 68.2188 86.6099 68.2188 81.8739C68.3468 75.2179 69.2428 69.5859 70.9068 64.9779C72.3788 61.1379 74.2028 57.9699 76.3788 55.4739C77.0828 54.5139 78.0748 53.5219 79.3548 52.4979C79.8028 52.0499 80.4748 51.6019 81.3708 51.1539C82.5228 50.5779 83.6108 50.2899 84.6348 50.2899C87.0028 50.2899 88.8588 51.5059 90.2028 53.9379C91.4188 56.0499 92.0268 58.5139 92.0268 61.3299C92.0268 64.4019 91.4188 67.0579 90.2028 69.2979C89.7548 70.1939 89.1788 71.0899 88.4748 71.9859L87.4188 72.8499C86.7788 73.1699 86.2348 73.3299 85.7868 73.3299C85.2108 73.3299 84.7308 73.1699 84.3468 72.8499C83.9628 72.4659 83.7708 72.0179 83.7708 71.5059C83.7708 71.1219 83.9308 70.7699 84.2508 70.4499C84.5708 70.0659 84.9868 69.7779 85.4988 69.5859C86.6508 69.4579 87.3868 69.1379 87.7068 68.6259C88.9228 66.2579 89.5308 63.9219 89.5308 61.6179C89.5308 59.9539 89.2748 58.3859 88.7628 56.9139C88.5068 55.9539 88.0268 55.0899 87.3228 54.3219C86.6188 53.4259 85.7228 52.9779 84.6348 52.9779C82.9708 52.9779 81.3708 53.8099 79.8348 55.4739C77.5948 57.5859 75.6428 60.4339 73.9788 64.0179C71.9948 68.6899 70.9068 73.8739 70.7148 79.5699C70.6508 80.3379 70.6188 81.4579 70.6188 82.9299C70.6188 86.5779 70.9708 89.8419 71.6748 92.7219C72.5708 96.1779 73.6908 99.1539 75.0348 101.65C76.1228 103.634 77.3068 105.138 78.5868 106.162ZM103.429 93.5859C103.173 93.5859 102.949 93.4899 102.757 93.2979C102.565 93.0419 102.405 92.7539 102.277 92.4339C102.149 91.7939 102.021 91.0579 101.893 90.2259C101.829 89.3299 101.765 88.6579 101.701 88.2099C101.573 87.3139 101.477 86.5459 101.413 85.9059C101.413 85.2019 101.413 84.6259 101.413 84.1779L101.125 83.1219H100.933C100.869 83.1859 100.645 83.5059 100.261 84.0819C98.789 86.6419 97.445 88.4659 96.229 89.5539C95.397 90.2579 94.533 90.8019 93.637 91.1859C93.189 91.3779 92.741 91.4739 92.293 91.4739C91.525 91.4739 90.821 91.2179 90.181 90.7059C89.605 90.1299 89.285 89.4259 89.221 88.5939V87.7299C89.221 87.1539 89.285 86.4179 89.413 85.5219C90.053 82.9619 91.461 80.8499 93.637 79.1859C94.917 78.0979 96.325 77.5539 97.861 77.5539C98.565 77.5539 99.397 77.7139 100.357 78.0339C100.485 77.7139 100.581 77.3619 100.645 76.9779C100.773 76.5939 100.933 76.2099 101.125 75.8259L101.413 74.9619C101.605 74.3219 102.053 74.0659 102.757 74.1939C103.333 74.1939 103.685 74.5459 103.813 75.2499C103.877 75.5059 103.909 75.8899 103.909 76.4019C103.845 79.6659 104.069 84.4339 104.581 90.7059C104.581 90.9619 104.645 91.3459 104.773 91.8579V92.1459C104.773 92.8499 104.453 93.2979 103.813 93.4899L103.429 93.5859ZM92.005 88.8819C92.261 89.0099 92.453 89.0739 92.581 89.0739C92.837 89.0739 93.093 88.9779 93.349 88.7859C93.669 88.5299 93.893 88.3699 94.021 88.3059C96.005 86.5779 97.797 83.9859 99.397 80.5299C98.885 80.2099 98.373 80.0499 97.861 80.0499C97.157 80.0499 96.581 80.2419 96.133 80.6259C93.637 82.0979 92.165 84.1779 91.717 86.8659C91.589 87.2499 91.525 87.5699 91.525 87.8259C91.525 88.2099 91.685 88.5619 92.005 88.8819ZM109.143 74.7699C108.631 74.7699 108.215 74.6419 107.895 74.3859C107.575 74.0659 107.383 73.7139 107.319 73.3299V73.1379C107.319 72.5619 107.671 72.1139 108.375 71.7939C108.439 71.7299 108.983 71.5699 110.007 71.3139C110.135 71.3779 110.327 71.4739 110.583 71.6019C110.839 71.6659 111.095 71.7939 111.351 71.9859C111.543 72.1779 111.639 72.3699 111.639 72.5619C111.639 72.7539 111.511 73.0419 111.255 73.4259L110.679 74.0019C110.295 74.5139 109.783 74.7699 109.143 74.7699ZM109.719 92.9139C109.335 92.9139 109.047 92.7859 108.855 92.5299C108.599 92.2739 108.407 91.9219 108.279 91.4739C108.151 90.0659 108.087 88.9779 108.087 88.2099C108.087 86.8659 108.151 84.7859 108.279 81.9699C107.447 81.5219 107.031 80.9459 107.031 80.2419C107.031 80.0499 107.095 79.7619 107.223 79.3779C107.415 78.7379 107.767 78.1299 108.279 77.5539C108.535 77.1699 108.951 76.9779 109.527 76.9779C109.847 76.9779 110.135 77.0739 110.391 77.2659C110.647 77.4579 110.807 77.6819 110.871 77.9379C111.063 78.3219 111.159 78.9299 111.159 79.7619L110.775 86.5779L110.871 91.5699L110.967 91.9539C110.903 92.4019 110.615 92.7219 110.103 92.9139H109.719ZM115.706 116.146C115.258 116.146 114.906 115.922 114.65 115.474C114.394 114.77 114.234 114.13 114.17 113.554C114.17 112.53 114.106 111.186 113.978 109.522C113.85 106.962 113.786 105.074 113.786 103.858C113.786 102.194 113.882 100.498 114.074 98.7699V97.8099C114.074 90.4499 114.106 84.9139 114.17 81.2019C114.17 80.4979 114.234 79.6979 114.362 78.8019C114.49 77.9059 114.586 77.2659 114.65 76.8819C114.778 76.3699 114.906 76.0179 115.034 75.8259C115.29 75.2499 115.77 75.0259 116.474 75.1539C117.434 75.3459 117.914 75.6979 117.914 76.2099C117.914 76.4659 117.658 77.2019 117.146 78.4179C116.698 79.6339 116.506 80.9779 116.57 82.4499C116.506 83.7299 116.474 85.7459 116.474 88.4979L117.146 87.1539C118.874 83.5699 120.09 81.1699 120.794 79.9539C121.114 79.3139 121.562 78.6419 122.138 77.9379C122.778 77.2339 123.226 76.7539 123.482 76.4979C123.738 76.2419 124.25 75.8579 125.018 75.3459C125.466 75.0899 125.946 74.9619 126.458 74.9619C127.354 74.9619 128.058 75.4099 128.57 76.3059C128.826 76.9459 128.922 77.4899 128.858 77.9379C128.73 79.5379 128.506 80.7219 128.186 81.4899C126.714 85.1379 124.378 88.5939 121.178 91.8579C119.962 93.0739 118.714 93.7139 117.434 93.7779C116.858 95.6339 116.57 97.1699 116.57 98.3859C116.826 104.53 116.986 109.106 117.05 112.114C117.114 112.626 117.146 113.394 117.146 114.418C117.146 114.61 117.082 114.962 116.954 115.474C116.826 115.922 116.474 116.146 115.898 116.146H115.706ZM118.394 91.3779L119.162 90.7059C122.234 87.4419 124.442 84.1459 125.786 80.8179C126.042 80.1779 126.234 79.1859 126.362 77.8419C126.426 77.7779 126.426 77.6819 126.362 77.5539C126.298 77.3619 126.234 77.2339 126.17 77.1699C124.762 78.1299 123.13 80.2739 121.274 83.6019C119.418 86.9299 118.394 89.5219 118.202 91.3779H118.394ZM145.523 93.5859C145.267 93.5859 145.043 93.4899 144.851 93.2979C144.659 93.0419 144.499 92.7539 144.371 92.4339C144.243 91.7939 144.115 91.0579 143.987 90.2259C143.923 89.3299 143.859 88.6579 143.795 88.2099C143.667 87.3139 143.571 86.5459 143.507 85.9059C143.507 85.2019 143.507 84.6259 143.507 84.1779L143.219 83.1219H143.027C142.963 83.1859 142.739 83.5059 142.355 84.0819C140.883 86.6419 139.539 88.4659 138.323 89.5539C137.491 90.2579 136.627 90.8019 135.731 91.1859C135.283 91.3779 134.835 91.4739 134.387 91.4739C133.619 91.4739 132.915 91.2179 132.275 90.7059C131.699 90.1299 131.379 89.4259 131.315 88.5939V87.7299C131.315 87.1539 131.379 86.4179 131.507 85.5219C132.147 82.9619 133.555 80.8499 135.731 79.1859C137.011 78.0979 138.419 77.5539 139.955 77.5539C140.659 77.5539 141.491 77.7139 142.451 78.0339C142.579 77.7139 142.675 77.3619 142.739 76.9779C142.867 76.5939 143.027 76.2099 143.219 75.8259L143.507 74.9619C143.699 74.3219 144.147 74.0659 144.851 74.1939C145.427 74.1939 145.779 74.5459 145.907 75.2499C145.971 75.5059 146.003 75.8899 146.003 76.4019C145.939 79.6659 146.163 84.4339 146.675 90.7059C146.675 90.9619 146.739 91.3459 146.867 91.8579V92.1459C146.867 92.8499 146.547 93.2979 145.907 93.4899L145.523 93.5859ZM134.099 88.8819C134.355 89.0099 134.547 89.0739 134.675 89.0739C134.931 89.0739 135.187 88.9779 135.443 88.7859C135.763 88.5299 135.987 88.3699 136.115 88.3059C138.099 86.5779 139.891 83.9859 141.491 80.5299C140.979 80.2099 140.467 80.0499 139.955 80.0499C139.251 80.0499 138.675 80.2419 138.227 80.6259C135.731 82.0979 134.259 84.1779 133.811 86.8659C133.683 87.2499 133.619 87.5699 133.619 87.8259C133.619 88.2099 133.779 88.5619 134.099 88.8819Z" fill="#F0F8FF"/>
<g filter="url(#filter1_f_128_348)">
<path d="M13.256 59.3139C10.44 59.5699 8.232 58.4179 6.632 55.8579C5.864 54.5139 5.416 52.9459 5.288 51.1539C5.16 50.1299 5.064 49.2339 5 48.4659C5 47.6979 5 47.0579 5 46.5459C5.064 43.0899 5.608 37.9059 6.632 30.9939C6.824 29.7779 7.08 27.8259 7.4 25.1379C7.976 20.9779 8.616 17.2339 9.32 13.9059L9.512 10.8339C9.832 6.92989 9.992 4.94589 9.992 4.88189C10.056 4.56189 10.408 4.40189 11.048 4.40189C11.56 4.40189 12.104 4.49789 12.68 4.68989C13.384 4.88189 13.672 5.36189 13.544 6.12989V7.08989C12.392 11.8899 11.4 16.8179 10.568 21.8739C9.8 26.9299 9 32.9139 8.168 39.8259C7.912 41.4899 7.784 43.9219 7.784 47.1219V50.0979C7.784 51.3779 8.04 52.6259 8.552 53.8419C8.872 54.8019 9.384 55.5699 10.088 56.1459C10.792 56.6579 11.592 56.9139 12.488 56.9139C13.192 56.9139 13.832 56.7859 14.408 56.5299C15.816 55.9539 17.064 55.1539 18.152 54.1299C18.536 53.8099 19.496 52.8819 21.032 51.3459L22.76 49.7139C23.336 49.1379 23.624 48.8499 23.624 48.8499C24.2 48.7219 24.584 48.7539 24.776 48.9459C24.968 49.2019 25.064 49.5859 25.064 50.0979C25.064 50.2259 24.936 50.4179 24.68 50.6739C22.44 53.7459 20.008 56.1139 17.384 57.7779C16.04 58.7379 14.664 59.2499 13.256 59.3139ZM35.429 45.5859C35.173 45.5859 34.949 45.4899 34.757 45.2979C34.565 45.0419 34.405 44.7539 34.277 44.4339C34.149 43.7939 34.021 43.0579 33.893 42.2259C33.829 41.3299 33.765 40.6579 33.701 40.2099C33.573 39.3139 33.477 38.5459 33.413 37.9059C33.413 37.2019 33.413 36.6259 33.413 36.1779L33.125 35.1219H32.933C32.869 35.1859 32.645 35.5059 32.261 36.0819C30.789 38.6419 29.445 40.4659 28.229 41.5539C27.397 42.2579 26.533 42.8019 25.637 43.1859C25.189 43.3779 24.741 43.4739 24.293 43.4739C23.525 43.4739 22.821 43.2179 22.181 42.7059C21.605 42.1299 21.285 41.4259 21.221 40.5939V39.7299C21.221 39.1539 21.285 38.4179 21.413 37.5219C22.053 34.9619 23.461 32.8499 25.637 31.1859C26.917 30.0979 28.325 29.5539 29.861 29.5539C30.565 29.5539 31.397 29.7139 32.357 30.0339C32.485 29.7139 32.581 29.3619 32.645 28.9779C32.773 28.5939 32.933 28.2099 33.125 27.8259L33.413 26.9619C33.605 26.3219 34.053 26.0659 34.757 26.1939C35.333 26.1939 35.685 26.5459 35.813 27.2499C35.877 27.5059 35.909 27.8899 35.909 28.4019C35.845 31.6659 36.069 36.4339 36.581 42.7059C36.581 42.9619 36.645 43.3459 36.773 43.8579V44.1459C36.773 44.8499 36.453 45.2979 35.813 45.4899L35.429 45.5859ZM24.005 40.8819C24.261 41.0099 24.453 41.0739 24.581 41.0739C24.837 41.0739 25.093 40.9779 25.349 40.7859C25.669 40.5299 25.893 40.3699 26.021 40.3059C28.005 38.5779 29.797 35.9859 31.397 32.5299C30.885 32.2099 30.373 32.0499 29.861 32.0499C29.157 32.0499 28.581 32.2419 28.133 32.6259C25.637 34.0979 24.165 36.1779 23.717 38.8659C23.589 39.2499 23.525 39.5699 23.525 39.8259C23.525 40.2099 23.685 40.5619 24.005 40.8819ZM45.2713 43.3779C44.8233 43.8259 44.2793 44.0499 43.6393 44.0499C42.9353 44.0499 42.2953 43.7619 41.7193 43.1859C40.8233 42.4179 40.1513 41.2979 39.7033 39.8259C39.2553 38.3539 39.0312 36.7539 39.0312 35.0259C39.0312 33.2339 39.2553 31.6659 39.7033 30.3219C39.7033 29.8739 39.9273 29.3619 40.3753 28.7859C40.6953 28.2739 41.1433 28.0179 41.7193 28.0179C42.1673 28.0179 42.4873 28.2419 42.6793 28.6899C42.8073 29.0739 42.8713 29.2979 42.8713 29.3619C42.8713 29.8099 42.5833 30.2579 42.0073 30.7059C41.4953 31.0899 41.2393 32.3379 41.2393 34.4499C41.2393 35.4739 41.3353 36.5619 41.5273 37.7139C41.7193 38.8019 41.9433 39.6979 42.1992 40.4019C42.5833 41.2339 43.0633 41.6499 43.6393 41.6499C44.7912 41.6499 45.9753 40.2099 47.1913 37.3299L50.3593 29.0739C50.4873 28.6899 50.6473 28.2739 50.8393 27.8259C51.1593 27.5059 51.5433 27.3779 51.9913 27.4419C52.5673 27.4419 52.8553 27.7619 52.8553 28.4019C52.9833 28.5939 52.9833 28.7859 52.8553 28.9779C52.4713 33.0739 52.3113 36.8819 52.3753 40.4019C52.3753 40.5299 52.4073 40.7219 52.4713 40.9779C52.5353 41.2339 52.5353 41.4579 52.4713 41.6499C52.4073 41.9059 52.2793 42.1299 52.0873 42.3219C51.9593 42.4499 51.7993 42.5139 51.6073 42.5139C51.0953 42.5139 50.7113 42.2579 50.4553 41.7459C50.3913 41.5539 50.3593 41.2659 50.3593 40.8819L50.1673 36.8499C50.1673 36.5299 50.1353 36.2739 50.0713 36.0819L49.4953 37.1379C48.5993 39.0579 47.8953 40.4019 47.3833 41.1699C46.7433 42.1299 46.0393 42.8659 45.2713 43.3779ZM57.0718 46.0659C56.3678 46.0659 55.9198 45.8099 55.7278 45.2979C55.6638 45.1059 55.6318 44.8499 55.6318 44.5299C55.6958 42.1619 55.7278 39.4099 55.7278 36.2739C55.7278 33.7139 55.6638 31.9859 55.5358 31.0899C55.4718 30.1299 55.3758 29.3939 55.2477 28.8819C55.0557 28.3059 54.9277 27.8579 54.8637 27.5379C54.9277 27.2179 55.1517 26.9619 55.5358 26.7699C55.9838 26.5779 56.3998 26.4819 56.7838 26.4819C57.4878 26.6099 57.8718 26.9299 57.9358 27.4419C57.9998 27.6339 58.0318 27.9539 58.0318 28.4019C57.9678 29.5539 57.9358 31.2819 57.9358 33.5859V34.6419H58.2238C58.4158 34.3219 58.6398 33.9699 58.8958 33.5859C59.1518 33.1379 59.4718 32.6579 59.8558 32.1459C61.5198 29.1379 63.1518 27.5699 64.7518 27.4419C65.2638 27.4419 65.6798 27.5699 65.9998 27.8259C66.3838 28.0819 66.5758 28.3699 66.5758 28.6899C66.5758 29.0099 66.4158 29.2659 66.0958 29.4579C65.2638 29.7779 64.5598 30.1939 63.9838 30.7059C63.4078 31.2179 62.8318 31.8579 62.2558 32.6259C61.0398 34.2899 60.1118 35.9219 59.4718 37.5219C58.8958 39.0579 58.5438 40.7539 58.4158 42.6099C58.3518 42.8659 58.3198 43.1859 58.3198 43.5699C58.3838 43.8899 58.4158 44.1139 58.4158 44.2419C58.4158 44.6899 58.3838 45.0419 58.3198 45.2979C58.1918 45.8099 57.7758 46.0659 57.0718 46.0659ZM80.8978 45.5859C80.6418 45.5859 80.4178 45.4899 80.2258 45.2979C80.0338 45.0419 79.8738 44.7539 79.7458 44.4339C79.6178 43.7939 79.4898 43.0579 79.3618 42.2259C79.2977 41.3299 79.2338 40.6579 79.1698 40.2099C79.0418 39.3139 78.9458 38.5459 78.8818 37.9059C78.8818 37.2019 78.8818 36.6259 78.8818 36.1779L78.5938 35.1219H78.4018C78.3378 35.1859 78.1138 35.5059 77.7298 36.0819C76.2578 38.6419 74.9138 40.4659 73.6978 41.5539C72.8658 42.2579 72.0018 42.8019 71.1058 43.1859C70.6578 43.3779 70.2098 43.4739 69.7617 43.4739C68.9938 43.4739 68.2898 43.2179 67.6498 42.7059C67.0738 42.1299 66.7538 41.4259 66.6898 40.5939V39.7299C66.6898 39.1539 66.7538 38.4179 66.8818 37.5219C67.5218 34.9619 68.9298 32.8499 71.1058 31.1859C72.3858 30.0979 73.7938 29.5539 75.3298 29.5539C76.0338 29.5539 76.8658 29.7139 77.8258 30.0339C77.9538 29.7139 78.0498 29.3619 78.1138 28.9779C78.2418 28.5939 78.4018 28.2099 78.5938 27.8259L78.8818 26.9619C79.0738 26.3219 79.5218 26.0659 80.2258 26.1939C80.8018 26.1939 81.1538 26.5459 81.2818 27.2499C81.3458 27.5059 81.3778 27.8899 81.3778 28.4019C81.3138 31.6659 81.5378 36.4339 82.0498 42.7059C82.0498 42.9619 82.1138 43.3459 82.2418 43.8579V44.1459C82.2418 44.8499 81.9218 45.2979 81.2818 45.4899L80.8978 45.5859ZM69.4738 40.8819C69.7298 41.0099 69.9218 41.0739 70.0498 41.0739C70.3058 41.0739 70.5618 40.9779 70.8178 40.7859C71.1378 40.5299 71.3618 40.3699 71.4898 40.3059C73.4738 38.5779 75.2658 35.9859 76.8658 32.5299C76.3538 32.2099 75.8418 32.0499 75.3298 32.0499C74.6258 32.0499 74.0498 32.2419 73.6018 32.6259C71.1058 34.0979 69.6338 36.1779 69.1858 38.8659C69.0578 39.2499 68.9938 39.5699 68.9938 39.8259C68.9938 40.2099 69.1538 40.5619 69.4738 40.8819Z" fill="#191919" fill-opacity="0.9"/>
</g>
<path d="M13.256 59.3139C10.44 59.5699 8.232 58.4179 6.632 55.8579C5.864 54.5139 5.416 52.9459 5.288 51.1539C5.16 50.1299 5.064 49.2339 5 48.4659C5 47.6979 5 47.0579 5 46.5459C5.064 43.0899 5.608 37.9059 6.632 30.9939C6.824 29.7779 7.08 27.8259 7.4 25.1379C7.976 20.9779 8.616 17.2339 9.32 13.9059L9.512 10.8339C9.832 6.92989 9.992 4.94589 9.992 4.88189C10.056 4.56189 10.408 4.40189 11.048 4.40189C11.56 4.40189 12.104 4.49789 12.68 4.68989C13.384 4.88189 13.672 5.36189 13.544 6.12989V7.08989C12.392 11.8899 11.4 16.8179 10.568 21.8739C9.8 26.9299 9 32.9139 8.168 39.8259C7.912 41.4899 7.784 43.9219 7.784 47.1219V50.0979C7.784 51.3779 8.04 52.6259 8.552 53.8419C8.872 54.8019 9.384 55.5699 10.088 56.1459C10.792 56.6579 11.592 56.9139 12.488 56.9139C13.192 56.9139 13.832 56.7859 14.408 56.5299C15.816 55.9539 17.064 55.1539 18.152 54.1299C18.536 53.8099 19.496 52.8819 21.032 51.3459L22.76 49.7139C23.336 49.1379 23.624 48.8499 23.624 48.8499C24.2 48.7219 24.584 48.7539 24.776 48.9459C24.968 49.2019 25.064 49.5859 25.064 50.0979C25.064 50.2259 24.936 50.4179 24.68 50.6739C22.44 53.7459 20.008 56.1139 17.384 57.7779C16.04 58.7379 14.664 59.2499 13.256 59.3139ZM35.429 45.5859C35.173 45.5859 34.949 45.4899 34.757 45.2979C34.565 45.0419 34.405 44.7539 34.277 44.4339C34.149 43.7939 34.021 43.0579 33.893 42.2259C33.829 41.3299 33.765 40.6579 33.701 40.2099C33.573 39.3139 33.477 38.5459 33.413 37.9059C33.413 37.2019 33.413 36.6259 33.413 36.1779L33.125 35.1219H32.933C32.869 35.1859 32.645 35.5059 32.261 36.0819C30.789 38.6419 29.445 40.4659 28.229 41.5539C27.397 42.2579 26.533 42.8019 25.637 43.1859C25.189 43.3779 24.741 43.4739 24.293 43.4739C23.525 43.4739 22.821 43.2179 22.181 42.7059C21.605 42.1299 21.285 41.4259 21.221 40.5939V39.7299C21.221 39.1539 21.285 38.4179 21.413 37.5219C22.053 34.9619 23.461 32.8499 25.637 31.1859C26.917 30.0979 28.325 29.5539 29.861 29.5539C30.565 29.5539 31.397 29.7139 32.357 30.0339C32.485 29.7139 32.581 29.3619 32.645 28.9779C32.773 28.5939 32.933 28.2099 33.125 27.8259L33.413 26.9619C33.605 26.3219 34.053 26.0659 34.757 26.1939C35.333 26.1939 35.685 26.5459 35.813 27.2499C35.877 27.5059 35.909 27.8899 35.909 28.4019C35.845 31.6659 36.069 36.4339 36.581 42.7059C36.581 42.9619 36.645 43.3459 36.773 43.8579V44.1459C36.773 44.8499 36.453 45.2979 35.813 45.4899L35.429 45.5859ZM24.005 40.8819C24.261 41.0099 24.453 41.0739 24.581 41.0739C24.837 41.0739 25.093 40.9779 25.349 40.7859C25.669 40.5299 25.893 40.3699 26.021 40.3059C28.005 38.5779 29.797 35.9859 31.397 32.5299C30.885 32.2099 30.373 32.0499 29.861 32.0499C29.157 32.0499 28.581 32.2419 28.133 32.6259C25.637 34.0979 24.165 36.1779 23.717 38.8659C23.589 39.2499 23.525 39.5699 23.525 39.8259C23.525 40.2099 23.685 40.5619 24.005 40.8819ZM45.2713 43.3779C44.8233 43.8259 44.2793 44.0499 43.6393 44.0499C42.9353 44.0499 42.2953 43.7619 41.7193 43.1859C40.8233 42.4179 40.1513 41.2979 39.7033 39.8259C39.2553 38.3539 39.0312 36.7539 39.0312 35.0259C39.0312 33.2339 39.2553 31.6659 39.7033 30.3219C39.7033 29.8739 39.9273 29.3619 40.3753 28.7859C40.6953 28.2739 41.1433 28.0179 41.7193 28.0179C42.1673 28.0179 42.4873 28.2419 42.6793 28.6899C42.8073 29.0739 42.8713 29.2979 42.8713 29.3619C42.8713 29.8099 42.5833 30.2579 42.0073 30.7059C41.4953 31.0899 41.2393 32.3379 41.2393 34.4499C41.2393 35.4739 41.3353 36.5619 41.5273 37.7139C41.7193 38.8019 41.9433 39.6979 42.1992 40.4019C42.5833 41.2339 43.0633 41.6499 43.6393 41.6499C44.7912 41.6499 45.9753 40.2099 47.1913 37.3299L50.3593 29.0739C50.4873 28.6899 50.6473 28.2739 50.8393 27.8259C51.1593 27.5059 51.5433 27.3779 51.9913 27.4419C52.5673 27.4419 52.8553 27.7619 52.8553 28.4019C52.9833 28.5939 52.9833 28.7859 52.8553 28.9779C52.4713 33.0739 52.3113 36.8819 52.3753 40.4019C52.3753 40.5299 52.4073 40.7219 52.4713 40.9779C52.5353 41.2339 52.5353 41.4579 52.4713 41.6499C52.4073 41.9059 52.2793 42.1299 52.0873 42.3219C51.9593 42.4499 51.7993 42.5139 51.6073 42.5139C51.0953 42.5139 50.7113 42.2579 50.4553 41.7459C50.3913 41.5539 50.3593 41.2659 50.3593 40.8819L50.1673 36.8499C50.1673 36.5299 50.1353 36.2739 50.0713 36.0819L49.4953 37.1379C48.5993 39.0579 47.8953 40.4019 47.3833 41.1699C46.7433 42.1299 46.0393 42.8659 45.2713 43.3779ZM57.0718 46.0659C56.3678 46.0659 55.9198 45.8099 55.7278 45.2979C55.6638 45.1059 55.6318 44.8499 55.6318 44.5299C55.6958 42.1619 55.7278 39.4099 55.7278 36.2739C55.7278 33.7139 55.6638 31.9859 55.5358 31.0899C55.4718 30.1299 55.3758 29.3939 55.2477 28.8819C55.0557 28.3059 54.9277 27.8579 54.8637 27.5379C54.9277 27.2179 55.1517 26.9619 55.5358 26.7699C55.9838 26.5779 56.3998 26.4819 56.7838 26.4819C57.4878 26.6099 57.8718 26.9299 57.9358 27.4419C57.9998 27.6339 58.0318 27.9539 58.0318 28.4019C57.9678 29.5539 57.9358 31.2819 57.9358 33.5859V34.6419H58.2238C58.4158 34.3219 58.6398 33.9699 58.8958 33.5859C59.1518 33.1379 59.4718 32.6579 59.8558 32.1459C61.5198 29.1379 63.1518 27.5699 64.7518 27.4419C65.2638 27.4419 65.6798 27.5699 65.9998 27.8259C66.3838 28.0819 66.5758 28.3699 66.5758 28.6899C66.5758 29.0099 66.4158 29.2659 66.0958 29.4579C65.2638 29.7779 64.5598 30.1939 63.9838 30.7059C63.4078 31.2179 62.8318 31.8579 62.2558 32.6259C61.0398 34.2899 60.1118 35.9219 59.4718 37.5219C58.8958 39.0579 58.5438 40.7539 58.4158 42.6099C58.3518 42.8659 58.3198 43.1859 58.3198 43.5699C58.3838 43.8899 58.4158 44.1139 58.4158 44.2419C58.4158 44.6899 58.3838 45.0419 58.3198 45.2979C58.1918 45.8099 57.7758 46.0659 57.0718 46.0659ZM80.8978 45.5859C80.6418 45.5859 80.4178 45.4899 80.2258 45.2979C80.0338 45.0419 79.8738 44.7539 79.7458 44.4339C79.6178 43.7939 79.4898 43.0579 79.3618 42.2259C79.2977 41.3299 79.2338 40.6579 79.1698 40.2099C79.0418 39.3139 78.9458 38.5459 78.8818 37.9059C78.8818 37.2019 78.8818 36.6259 78.8818 36.1779L78.5938 35.1219H78.4018C78.3378 35.1859 78.1138 35.5059 77.7298 36.0819C76.2578 38.6419 74.9138 40.4659 73.6978 41.5539C72.8658 42.2579 72.0018 42.8019 71.1058 43.1859C70.6578 43.3779 70.2098 43.4739 69.7617 43.4739C68.9938 43.4739 68.2898 43.2179 67.6498 42.7059C67.0738 42.1299 66.7538 41.4259 66.6898 40.5939V39.7299C66.6898 39.1539 66.7538 38.4179 66.8818 37.5219C67.5218 34.9619 68.9298 32.8499 71.1058 31.1859C72.3858 30.0979 73.7938 29.5539 75.3298 29.5539C76.0338 29.5539 76.8658 29.7139 77.8258 30.0339C77.9538 29.7139 78.0498 29.3619 78.1138 28.9779C78.2418 28.5939 78.4018 28.2099 78.5938 27.8259L78.8818 26.9619C79.0738 26.3219 79.5218 26.0659 80.2258 26.1939C80.8018 26.1939 81.1538 26.5459 81.2818 27.2499C81.3458 27.5059 81.3778 27.8899 81.3778 28.4019C81.3138 31.6659 81.5378 36.4339 82.0498 42.7059C82.0498 42.9619 82.1138 43.3459 82.2418 43.8579V44.1459C82.2418 44.8499 81.9218 45.2979 81.2818 45.4899L80.8978 45.5859ZM69.4738 40.8819C69.7298 41.0099 69.9218 41.0739 70.0498 41.0739C70.3058 41.0739 70.5618 40.9779 70.8178 40.7859C71.1378 40.5299 71.3618 40.3699 71.4898 40.3059C73.4738 38.5779 75.2658 35.9859 76.8658 32.5299C76.3538 32.2099 75.8418 32.0499 75.3298 32.0499C74.6258 32.0499 74.0498 32.2419 73.6018 32.6259C71.1058 34.0979 69.6338 36.1779 69.1858 38.8659C69.0578 39.2499 68.9938 39.5699 68.9938 39.8259C68.9938 40.2099 69.1538 40.5619 69.4738 40.8819Z" fill="#F0F8FF"/>
<g filter="url(#filter2_d_128_348)">
<line x1="4" y1="116.558" x2="150" y2="116.558" stroke="#F2AE30"/>
</g>
<defs>
<filter id="filter0_f_128_348" x="64.2188" y="46.2899" width="86.648" height="73.856" filterUnits="userSpaceOnUse" color-interpolation-filters="sRGB">
<feFlood flood-opacity="0" result="BackgroundImageFix"/>
<feBlend mode="normal" in="SourceGraphic" in2="BackgroundImageFix" result="shape"/>
<feGaussianBlur stdDeviation="2" result="effect1_foregroundBlur_128_348"/>
</filter>
<filter id="filter1_f_128_348" x="1" y="0.401886" width="85.2418" height="63.296" filterUnits="userSpaceOnUse" color-interpolation-filters="sRGB">
<feFlood flood-opacity="0" result="BackgroundImageFix"/>
<feBlend mode="normal" in="SourceGraphic" in2="BackgroundImageFix" result="shape"/>
<feGaussianBlur stdDeviation="2" result="effect1_foregroundBlur_128_348"/>
</filter>
<filter id="filter2_d_128_348" x="0" y="116.058" width="154" height="9" filterUnits="userSpaceOnUse" color-interpolation-filters="sRGB">
<feFlood flood-opacity="0" result="BackgroundImageFix"/>
<feColorMatrix in="SourceAlpha" type="matrix" values="0 0 0 0 0 0 0 0 0 0 0 0 0 0 0 0 0 0 127 0" result="hardAlpha"/>
<feOffset dy="4"/>
<feGaussianBlur stdDeviation="2"/>
<feComposite in2="hardAlpha" operator="out"/>
<feColorMatrix type="matrix" values="0 0 0 0 0 0 0 0 0 0 0 0 0 0 0 0 0 0 0.25 0"/>
<feBlend mode="normal" in2="BackgroundImageFix" result="effect1_dropShadow_128_348"/>
<feBlend mode="normal" in="SourceGraphic" in2="effect1_dropShadow_128_348" result="shape"/>
</filter>
</defs>
</svg>
